HIERARCHY
ROOT joint_Root
{
  OFFSET 0 0 0
  CHANNELS 6 Xposition Yposition Zposition Zrotation Xrotation Yrotation
  JOINT Hips
  {
    OFFSET 0.847027 93.984 -452.225
    CHANNELS 6 Xposition Yposition Zposition Zrotation Xrotation Yrotation
    JOINT Spine
    {
      OFFSET 15.7357 0 0
      CHANNELS 6 Xposition Yposition Zposition Zrotation Xrotation Yrotation
      JOINT Chest
      {
        OFFSET 8.98455 -0.406207 0
        CHANNELS 6 Xposition Yposition Zposition Zrotation Xrotation Yrotation
        JOINT Neck
        {
          OFFSET 16.3773 0 0
          CHANNELS 6 Xposition Yposition Zposition Zrotation Xrotation Yrotation
          JOINT Head
          {
            OFFSET 6.45672 0 0
            CHANNELS 6 Xposition Yposition Zposition Zrotation Xrotation Yrotation
            End Site
            {
              OFFSET 0 0 0
            }
          }
        }
        JOINT Shoulder_L
        {
          OFFSET 12.9942 -0.242716 4.98039
          CHANNELS 6 Xposition Yposition Zposition Zrotation Xrotation Yrotation
          JOINT UpperArm_L
          {
            OFFSET 5.34809 0 0
            CHANNELS 6 Xposition Yposition Zposition Zrotation Xrotation Yrotation
            JOINT LowerArm_L
            {
              OFFSET 24.3286 1.87007e-05 0
              CHANNELS 6 Xposition Yposition Zposition Zrotation Xrotation Yrotation
              JOINT Hand_L
              {
                OFFSET 22.2916 0 0
                CHANNELS 6 Xposition Yposition Zposition Zrotation Xrotation Yrotation
                End Site
                {
                  OFFSET 0 0 0
                }
              }
            }
          }
        }
        JOINT Shoulder_R
        {
          OFFSET 12.9945 -0.242716 -4.98039
          CHANNELS 6 Xposition Yposition Zposition Zrotation Xrotation Yrotation
          JOINT UpperArm_R
          {
            OFFSET -5.34813 0 0
            CHANNELS 6 Xposition Yposition Zposition Zrotation Xrotation Yrotation
            JOINT LowerArm_R
            {
              OFFSET -24.3289 0.000322201 0
              CHANNELS 6 Xposition Yposition Zposition Zrotation Xrotation Yrotation
              JOINT Hand_R
              {
                OFFSET -22.2915 -0.000108084 0
                CHANNELS 6 Xposition Yposition Zposition Zrotation Xrotation Yrotation
                End Site
                {
                  OFFSET 0 0 0
                }
              }
            }
          }
        }
      }
    }
    JOINT UpperLeg_L
    {
      OFFSET -2.19248 -6.46944 0
      CHANNELS 6 Xposition Yposition Zposition Zrotation Xrotation Yrotation
      JOINT LowerLeg_L
      {
        OFFSET 39.0811 0 -1.23785e-05
        CHANNELS 6 Xposition Yposition Zposition Zrotation Xrotation Yrotation
        JOINT Foot_L
        {
          OFFSET 40.9854 0 -1.26872e-05
          CHANNELS 6 Xposition Yposition Zposition Zrotation Xrotation Yrotation
          JOINT Toes_L
          {
            OFFSET 11.7543 0 0
            CHANNELS 6 Xposition Yposition Zposition Zrotation Xrotation Yrotation
            End Site
            {
              OFFSET 0 0 0
            }
          }
        }
      }
    }
    JOINT UpperLeg_R
    {
      OFFSET -2.19251 6.46944 0
      CHANNELS 6 Xposition Yposition Zposition Zrotation Xrotation Yrotation
      JOINT LowerLeg_R
      {
        OFFSET -39.0811 -0.00228153 -0.0401928
        CHANNELS 6 Xposition Yposition Zposition Zrotation Xrotation Yrotation
        JOINT Foot_R
        {
          OFFSET -40.9854 0 0
          CHANNELS 6 Xposition Yposition Zposition Zrotation Xrotation Yrotation
          JOINT Toes_R
          {
            OFFSET -11.7543 0 0
            CHANNELS 6 Xposition Yposition Zposition Zrotation Xrotation Yrotation
            End Site
            {
              OFFSET 0 0 0
            }
          }
        }
      }
    }
  }
}
MOTION
Frames:	8
Frame Time:	0.0333333
0 0 0 0 0 -0 1.23927 80.342 -320.334 89.2513 2.0007 -5.73561 15.7357 5.1072e-06 -5.51765e-07 86.2286 81.1 -88.3214 8.98455 -0.406207 -4.3199e-07 9.97864 -1.20388 -4.07775 16.3773 -1.3905e-06 -6.99897e-07 -3.26631 -5.53331 1.25118 6.45672 -1.25837e-06 -1.02172e-07 -10.2957 -7.17751 8.20225 12.9942 -0.242716 4.98039 -90.77 2.77991 -89.5294 5.34809 -7.22636e-06 -6.2814e-07 -52.4508 8.91159 -14.2282 24.3286 1.87007e-05 4.90208e-06 -5.89842 -3.25456 -61.2001 22.2916 -9.88446e-07 4.63217e-06 14.3234 5.64831 -14.8625 12.9945 -0.242716 -4.98039 88.2528 9.80374 -94.842 -5.34813 -1.25947e-06 -3.79883e-06 -61.9776 11.5792 24.4549 -24.3289 0.000322201 -8.65921e-06 3.42262 3.31012 -46.0347 -22.2915 -0.000108084 -4.47941e-06 0.949679 5.63001 -13.3465 -2.19248 -6.46944 -1.22534e-07 -176.108 -9.52685 -23.6339 39.0811 -6.73843e-06 -1.23785e-05 0.0815555 -0.0268689 64.1448 40.9854 -6.48686e-06 -1.26872e-05 1.41982 2.80743 -92.7338 11.7543 -2.30145e-07 3.05095e-06 0.0889845 -0.143984 -19.1208 -2.19251 6.46944 -1.45247e-06 173.987 19.0235 143.847 -39.0811 -0.00228153 -0.0401928 0.801746 -0.0180932 88.8872 -40.9854 7.72618e-06 5.99936e-06 -7.95901 -3.67642 -54.5157 -11.7543 -5.6619e-06 -5.58687e-06 0.333757 -0.39683 -20.387 
0 0 0 0 0 -0 0.670601 81.8785 -313.93 88.5564 3.92249 -6.24886 15.7357 5.1072e-06 -5.51764e-07 76.0712 81.2723 -77.2068 8.98455 -0.406207 -4.3199e-07 9.15351 -4.19277 -1.9342 16.3773 -1.3905e-06 -6.99897e-07 -2.7554 -5.15881 1.46067 6.45672 -1.25837e-06 -1.02172e-07 -9.14803 -3.93637 7.58783 12.9942 -0.242716 4.98039 -89.8239 -0.737946 -91.5162 5.34809 -7.22636e-06 -6.2814e-07 -51.5978 7.6994 -18.7961 24.3286 1.87007e-05 4.90208e-06 -5.40672 -2.23964 -67.5753 22.2916 -9.88446e-07 4.63217e-06 14.2042 5.63222 -13.4987 12.9945 -0.242716 -4.98039 88.1422 8.42001 -92.5069 -5.34813 -1.25947e-06 -3.79883e-06 -61.3553 13.464 30.2127 -24.3289 0.000322201 -8.65921e-06 2.54521 2.16882 -49.6031 -22.2915 -0.000108084 -4.47941e-06 -0.623393 5.62621 -13.0531 -2.19248 -6.46944 -1.22533e-07 -173.526 -8.9227 -16.2137 39.0811 -6.73843e-06 -1.23785e-05 0.0736715 -0.0320095 56.7826 40.9854 -6.48686e-06 -1.26872e-05 0.471296 5.22423 -90.7635 11.7543 -2.30145e-07 3.05095e-06 0.154748 -0.260494 -21.131 -2.19251 6.46944 -1.45247e-06 178.499 22.1011 137.772 -39.0811 -0.00228153 -0.0401928 0.597671 -0.074381 83.2968 -40.9854 7.72618e-06 5.99936e-06 -8.56062 -1.58211 -58.8694 -11.7543 -5.6619e-06 -5.58687e-06 0.309541 -0.366182 -20.1001 
0 0 0 0 0 -0 0.142141 83.7695 -307.286 88.2594 4.93959 -7.09987 15.7357 5.1072e-06 -5.51765e-07 67.6568 81.3117 -67.9468 8.98455 -0.406207 -4.3199e-07 8.33055 -6.57694 -0.100474 16.3773 -1.3905e-06 -6.99897e-07 -1.82634 -4.77103 1.52477 6.45672 -1.25837e-06 -1.02172e-07 -7.96669 -1.11657 6.91774 12.9942 -0.242716 4.98039 -89.0663 -4.32863 -92.8091 5.34809 -7.22636e-06 -6.2814e-07 -51.7279 5.92831 -21.6016 24.3286 1.87007e-05 4.90208e-06 -4.97394 -1.60561 -72.1564 22.2916 -9.88446e-07 4.63217e-06 13.8628 5.61207 -12.0789 12.9945 -0.242716 -4.98039 88.2095 6.84458 -90.2992 -5.34813 -1.25947e-06 -3.79883e-06 -60.0765 14.1499 34.1984 -24.3289 0.000322201 -8.65921e-06 3.07788 2.28625 -53.469 -22.2915 -0.000108084 -4.47941e-06 -1.36858 5.62377 -12.8866 -2.19248 -6.46944 -1.22534e-07 -171.236 -9.53907 -9.39766 39.0811 -6.73843e-06 -1.23785e-05 0.0796691 -0.0476015 48.8544 40.9854 -6.48686e-06 -1.26872e-05 -0.841988 8.35528 -84.2134 11.7543 -2.30145e-07 3.05095e-06 0.30484 -0.570339 -26.305 -2.19251 6.46944 -1.45247e-06 -177.392 23.7379 133.551 -39.0811 -0.00228153 -0.0401928 0.363514 -0.112355 73.5826 -40.9854 7.72618e-06 5.99936e-06 -9.33885 1.1562 -62.3421 -11.7543 -5.6619e-06 -5.58687e-06 0.315668 -0.373896 -20.1724 
0 0 0 0 0 -0 -0.341049 85.4507 -300.675 88.1521 5.62556 -8.93554 15.7357 5.1072e-06 -5.51765e-07 59.9069 81.4961 -59.3585 8.98455 -0.406207 -4.3199e-07 7.04963 -8.50206 1.6219 16.3773 -1.3905e-06 -6.99897e-07 -0.613747 -4.32199 1.53337 6.45672 -1.25837e-06 -1.02172e-07 -6.86341 1.13362 6.15629 12.9942 -0.242716 4.98039 -88.5348 -7.37613 -93.7309 5.34809 -7.22636e-06 -6.2814e-07 -52.4742 4.23372 -22.568 24.3286 1.87007e-05 4.90208e-06 -4.71015 -1.17526 -76.0307 22.2916 -9.88446e-07 4.63217e-06 12.6862 5.59053 -10.7882 12.9945 -0.242716 -4.98039 88.4418 5.21207 -88.3259 -5.34813 -1.25947e-06 -3.79883e-06 -58.902 14.0041 36.8458 -24.3289 0.000322201 -8.65921e-06 2.86427 1.8499 -57.1794 -22.2915 -0.000108084 -4.47941e-06 -0.958132 5.62354 -12.8664 -2.19248 -6.46944 -1.22533e-07 -169.215 -11.5045 -5.55142 39.0811 -6.73843e-06 -1.23785e-05 0.104854 -0.0810515 43.206 40.9854 -6.48686e-06 -1.26872e-05 -1.28407 11.5789 -73.7311 11.7543 -2.30145e-07 3.05095e-06 0.494636 -1.1264 -35.1395 -2.19251 6.46944 -1.45247e-06 -172.821 25.1271 129.766 -39.0811 -0.00228153 -0.0401928 0.167924 -0.0982229 61.0623 -40.9854 7.72618e-06 5.99936e-06 -9.35192 0.665277 -63.5018 -11.7543 -5.6619e-06 -5.58687e-06 0.306815 -0.362764 -20.0678 
0 0 0 0 0 -0 -0.710428 86.5091 -294.013 88.8202 6.72921 -10.7674 15.7357 5.1072e-06 -5.51765e-07 52.1971 81.3869 -50.9433 8.98455 -0.406207 -4.3199e-07 6.0416 -10.5499 3.06854 16.3773 -1.3905e-06 -6.99897e-07 0.302426 -4.03622 1.50723 6.45672 -1.25837e-06 -1.02172e-07 -5.85569 2.89392 5.1166 12.9942 -0.242716 4.98039 -88.2256 -9.19979 -94.0338 5.34809 -7.22636e-06 -6.2814e-07 -53.5034 2.91818 -22.3605 24.3286 1.87007e-05 4.90208e-06 -3.7425 -0.667973 -79.8972 22.2916 -9.88446e-07 4.63217e-06 12.8534 5.56886 -9.63289 12.9945 -0.242716 -4.98039 88.8808 3.34271 -86.4693 -5.34813 -1.25947e-06 -3.79883e-06 -58.1946 12.6858 37.7773 -24.3289 0.000322201 -8.65921e-06 4.02121 2.28796 -60.4101 -22.2915 -0.000108084 -4.47941e-06 -0.517076 5.62088 -12.6799 -2.19248 -6.46944 -1.22533e-07 -168.2 -12.6368 -3.91306 39.0811 -6.73843e-06 -1.23785e-05 0.167083 -0.157332 40.3726 40.9854 -6.48686e-06 -1.26872e-05 -1.61237 14.0658 -60.986 11.7543 -2.30145e-07 3.05095e-06 0.605378 -1.80694 -45.5114 -2.19251 6.46944 -1.45247e-06 -169.39 26.5267 127.436 -39.0811 -0.00228153 -0.0401928 0.0514218 -0.0531398 46.6821 -40.9854 7.72618e-06 5.99936e-06 -9.57873 -0.0489559 -61.2577 -11.7543 -5.6619e-06 -5.58687e-06 0.336097 -0.399826 -20.4152 
0 0 0 0 0 -0 -0.837552 86.6782 -286.909 90.3564 7.25307 -11.1066 15.7357 5.1072e-06 -5.51765e-07 49.003 80.9104 -47.4021 8.98455 -0.406207 -4.3199e-07 6.2284 -11.9149 3.85778 16.3773 -1.3905e-06 -6.99897e-07 1.07384 -3.85031 1.91436 6.45672 -1.25837e-06 -1.02172e-07 -5.59212 4.24951 3.69136 12.9942 -0.242716 4.98039 -88.0324 -10.1081 -93.9248 5.34809 -7.22636e-06 -6.2814e-07 -55.6029 1.93092 -21.4694 24.3286 1.87007e-05 4.90208e-06 -4.43173 -0.488244 -83.7203 22.2916 -9.88446e-07 4.63217e-06 13.4456 5.56507 -9.4389 12.9945 -0.242716 -4.98039 89.3811 1.68072 -84.7754 -5.34813 -1.25947e-06 -3.79883e-06 -57.989 10.2891 37.4207 -24.3289 0.000322201 -8.65921e-06 4.83056 2.49392 -62.7584 -22.2915 -0.000108084 -4.47941e-06 0.0928895 5.61556 -12.3222 -2.19248 -6.46944 -1.22534e-07 -168.134 -12.3651 -1.51376 39.0811 -6.73843e-06 -1.23785e-05 0.255492 -0.266704 39.3208 40.9854 -6.48686e-06 -1.26872e-05 -4.02843 14.6074 -48.3858 11.7543 -2.30145e-07 3.05095e-06 0.614805 -2.10401 -49.9782 -2.19251 6.46944 -1.45247e-06 -169.287 27.0312 127.931 -39.0811 -0.00228153 -0.0401928 -0.0149944 0.021263 34.8148 -40.9854 7.72618e-06 5.99936e-06 -12.2245 0.229678 -61.617 -11.7543 -5.6619e-06 -5.58687e-06 0.348923 -0.416222 -20.5681 
0 0 0 0 0 -0 -0.827869 85.9453 -279.289 91.9848 6.29475 -10.4651 15.7357 5.1072e-06 -5.51764e-07 50.4234 80.4512 -48.7456 8.98455 -0.406207 -4.3199e-07 7.25891 -12.1321 4.13413 16.3773 -1.3905e-06 -6.99897e-07 2.39014 -3.68453 2.65781 6.45672 -1.25837e-06 -1.02172e-07 -6.85439 5.21109 2.52098 12.9942 -0.242716 4.98039 -87.9901 -9.99254 -93.5657 5.34809 -7.22636e-06 -6.2814e-07 -58.4909 1.41477 -19.4047 24.3286 1.87007e-05 4.90208e-06 -5.43482 -0.253419 -87.3331 22.2916 -9.88446e-07 4.63217e-06 14.765 5.56942 -9.65168 12.9945 -0.242716 -4.98039 89.3526 1.69238 -84.0624 -5.34813 -1.25947e-06 -3.79883e-06 -57.051 7.33799 36.1704 -24.3289 0.000322201 -8.65921e-06 5.00896 2.39374 -64.5044 -22.2915 -0.000108084 -4.47941e-06 0.963186 5.61058 -11.9977 -2.19248 -6.46944 -1.22533e-07 -168.605 -11.783 1.66009 39.0811 -6.73843e-06 -1.23785e-05 0.351593 -0.376403 39.7551 40.9854 -6.48686e-06 -1.26872e-05 -7.77122 12.3029 -36.9528 11.7543 -2.30145e-07 3.05095e-06 0.612245 -1.93396 -47.4227 -2.19251 6.46944 -1.45247e-06 -171.237 25.9926 127.163 -39.0811 -0.00228153 -0.0401928 -0.0437939 0.0660839 34.314 -40.9854 7.72618e-06 5.99936e-06 -10.5048 0.88711 -61.5326 -11.7543 -5.6619e-06 -5.58687e-06 0.289976 -0.341644 -19.8693 
0 0 0 0 0 -0 -0.908642 84.4143 -271.168 93.4264 5.37565 -9.82878 15.7357 5.1072e-06 -5.51764e-07 52.9114 80.2108 -50.9254 8.98455 -0.406207 -4.3199e-07 8.18951 -11.7489 4.82287 16.3773 -1.3905e-06 -6.99897e-07 3.10404 -3.60293 2.87454 6.45672 -1.25837e-06 -1.02172e-07 -8.1026 5.66524 0.790978 12.9942 -0.242716 4.98039 -88.3329 -7.8593 -92.9825 5.34809 -7.22636e-06 -6.2814e-07 -60.9697 3.02521 -15.9133 24.3286 1.87007e-05 4.90208e-06 -7.3191 -0.126584 -89.0144 22.2916 -9.88446e-07 4.63217e-06 17.2585 5.58922 -10.7045 12.9945 -0.242716 -4.98039 88.576 3.69871 -83.927 -5.34813 -1.25947e-06 -3.79883e-06 -54.472 4.71386 34.5816 -24.3289 0.000322201 -8.65921e-06 5.02705 2.25057 -65.921 -22.2915 -0.000108084 -4.47941e-06 2.97079 5.61361 -12.1635 -2.19248 -6.46944 -1.22533e-07 -170.333 -8.48194 3.05064 39.0811 -6.73843e-06 -1.23785e-05 0.427034 -0.409904 43.5672 40.9854 -6.48686e-06 -1.26872e-05 -10.3124 5.84583 -30.2214 11.7543 -2.30144e-07 3.05095e-06 0.474086 -1.04988 -33.9495 -2.19251 6.46944 -1.45247e-06 -173.745 23.8189 125.043 -39.0811 -0.00228153 -0.0401928 0.071944 -0.0688973 44.4553 -40.9854 7.72618e-06 5.99936e-06 -1.12928 -2.57378 -59.8845 -11.7543 -5.6619e-06 -5.58687e-06 0.208603 -0.241691 -18.9218 
